<mxfile host="app.diagrams.net" modified="2023-07-31T16:31:31.019Z" agent="Mozilla/5.0 (Windows NT 10.0; Win64; x64) AppleWebKit/537.36 (KHTML, like Gecko) Chrome/115.0.0.0 Safari/537.36" version="21.6.6" etag="x7W_JvMZ8LeAVgjsl3v-" type="github">
  <diagram name="Page-1" id="K49OehW2HcwxjKh4NkOO">
    <mxGraphModel>
      <root>
        <mxCell id="0" />
        <mxCell id="1" parent="0" />
      </root>
    </mxGraphModel>
  </diagram>
</mxfile>
